# This file uses centimeters as units for non-parametric coordinates.

mtllib bridge.mtl
g default
v -1.055610 -0.126455 1.774876
v 1.055610 -0.126455 1.774876
v -1.055610 0.126455 1.774876
v 1.055610 0.126455 1.774876
v -1.055610 0.126455 -1.774876
v 1.055610 0.126455 -1.774876
v -1.055610 -0.126455 -1.774876
v 1.055610 -0.126455 -1.774876
v -0.876740 0.126455 1.774876
v -0.876740 0.126455 -1.774876
v -0.876740 -0.126455 -1.774876
v -0.876740 -0.126455 1.774876
v 0.917330 0.126455 1.774876
v 0.917330 0.126455 -1.774876
v 0.917330 -0.126455 -1.774876
v 0.917330 -0.126455 1.774876
v -1.055610 0.249721 1.774876
v -0.876740 0.249721 1.774876
v -0.876740 0.249721 -1.774876
v -1.055610 0.249721 -1.774876
v 0.917330 0.249721 1.774876
v 1.055610 0.249721 1.774876
v 1.055610 0.249721 -1.774876
v 0.917330 0.249721 -1.774876
vt 0.000000 0.000000
vt 0.063287 0.000000
vt 0.063287 0.000000
vt 0.000000 0.000000
vt 0.063287 1.000000
vt 0.000000 1.000000
vt 0.063287 1.000000
vt 0.000000 1.000000
vt 1.000000 0.000000
vt 1.000000 1.000000
vt 1.000000 1.000000
vt 1.000000 0.000000
vt 0.940450 0.000000
vt 0.940450 1.000000
vt 0.940450 1.000000
vt 0.940450 0.000000
vt 0.000000 0.000000
vt 0.063287 0.000000
vt 0.063287 1.000000
vt 0.000000 1.000000
vt 0.940450 0.000000
vt 1.000000 0.000000
vt 1.000000 1.000000
vt 0.940450 1.000000
vn 0.000000 0.000000 1.000000
vn 0.000000 0.000000 1.000000
vn 0.000000 0.000000 1.000000
vn 0.000000 0.000000 1.000000
vn 0.000000 1.000000 0.000000
vn 0.000000 1.000000 0.000000
vn 0.000000 1.000000 0.000000
vn 0.000000 1.000000 0.000000
vn 0.000000 0.000000 -1.000000
vn 0.000000 0.000000 -1.000000
vn 0.000000 0.000000 -1.000000
vn 0.000000 0.000000 -1.000000
vn 0.000000 -1.000000 0.000000
vn 0.000000 -1.000000 0.000000
vn 0.000000 -1.000000 0.000000
vn 0.000000 -1.000000 0.000000
vn 1.000000 0.000000 0.000000
vn 1.000000 0.000000 0.000000
vn 1.000000 0.000000 0.000000
vn 1.000000 0.000000 0.000000
vn -1.000000 0.000000 0.000000
vn -1.000000 0.000000 0.000000
vn -1.000000 0.000000 0.000000
vn -1.000000 0.000000 0.000000
vn 0.000000 1.000000 0.000000
vn 0.000000 1.000000 0.000000
vn 0.000000 1.000000 0.000000
vn 0.000000 1.000000 0.000000
vn 0.000000 0.000000 -1.000000
vn 0.000000 0.000000 -1.000000
vn 0.000000 -1.000000 0.000000
vn 0.000000 -1.000000 0.000000
vn 0.000000 0.000000 1.000000
vn 0.000000 0.000000 1.000000
vn 0.000000 1.000000 0.000000
vn 0.000000 1.000000 0.000000
vn 0.000000 1.000000 0.000000
vn 0.000000 1.000000 0.000000
vn 0.000000 0.000000 -1.000000
vn 0.000000 0.000000 -1.000000
vn 0.000000 -1.000000 0.000000
vn 0.000000 -1.000000 0.000000
vn 0.000000 0.000000 1.000000
vn 0.000000 0.000000 1.000000
vn 0.000000 0.000000 1.000000
vn 0.000000 0.000000 1.000000
vn 0.000000 0.000000 1.000000
vn 0.000000 0.000000 1.000000
vn 1.000000 0.000000 0.000000
vn 1.000000 0.000000 0.000000
vn 1.000000 0.000000 0.000000
vn 1.000000 0.000000 0.000000
vn 0.000000 0.000000 -1.000000
vn 0.000000 0.000000 -1.000000
vn 0.000000 0.000000 -1.000000
vn 0.000000 0.000000 -1.000000
vn -1.000000 0.000000 0.000000
vn -1.000000 0.000000 0.000000
vn -1.000000 0.000000 0.000000
vn -1.000000 0.000000 0.000000
vn 0.000000 0.000000 1.000000
vn 0.000000 0.000000 1.000000
vn 0.000000 0.000000 1.000000
vn 0.000000 0.000000 1.000000
vn 1.000000 0.000000 0.000000
vn 1.000000 0.000000 0.000000
vn 1.000000 0.000000 0.000000
vn 1.000000 0.000000 0.000000
vn 0.000000 0.000000 -1.000000
vn 0.000000 0.000000 -1.000000
vn 0.000000 0.000000 -1.000000
vn 0.000000 0.000000 -1.000000
vn -1.000000 0.000000 0.000000
vn -1.000000 0.000000 0.000000
vn -1.000000 0.000000 0.000000
vn -1.000000 0.000000 0.000000
s 1
g pCube5
usemtl lambert8SG
f 1/1/1 12/2/2 9/3/3 3/4/4
s off
f 17/17/5 18/18/6 19/19/7 20/20/8
s 2
f 5/6/9 10/5/10 11/7/11 7/8/12
s 3
f 7/8/13 11/7/14 12/2/15 1/1/16
s off
f 2/9/17 8/10/18 6/11/19 4/12/20
f 7/8/21 1/1/22 3/4/23 5/6/24
f 9/3/25 13/13/26 14/14/27 10/5/28
s 2
f 11/7/11 10/5/10 14/14/29 15/15/30
s 3
f 12/2/15 11/7/14 15/15/31 16/16/32
s 1
f 9/3/3 12/2/2 16/16/33 13/13/34
s off
f 21/21/35 22/22/36 23/23/37 24/24/38
s 2
f 15/15/30 14/14/29 6/11/39 8/10/40
s 3
f 16/16/32 15/15/31 8/10/41 2/9/42
s 1
f 13/13/34 16/16/33 2/9/43 4/12/44
s off
f 3/4/45 9/3/46 18/18/47 17/17/48
f 9/3/49 10/5/50 19/19/51 18/18/52
f 10/5/53 5/6/54 20/20/55 19/19/56
f 5/6/57 3/4/58 17/17/59 20/20/60
f 13/13/61 4/12/62 22/22/63 21/21/64
f 4/12/65 6/11/66 23/23/67 22/22/68
f 6/11/69 14/14/70 24/24/71 23/23/72
f 14/14/73 13/13/74 21/21/75 24/24/76
